<?xml version="1.0" encoding="utf-8"?>
<!-- created with bpmn-js / http://bpmn.io -->
<!DOCTYPE svg PUBLIC "-//W3C//DTD SVG 1.1//EN" "http://www.w3.org/Graphics/SVG/1.1/DTD/svg11.dtd">
<svg xmlns="http://www.w3.org/2000/svg" xmlns:xlink="http://www.w3.org/1999/xlink" width="1077" height=" 488.75" viewBox="69 -36 1077 378.75" version="1.1"><defs><marker id="activity-black-black-8i0ytug3qskxdccyluv85k5t1" viewBox="0 0 20 20" refX="11" refY="10" markerWidth="10" markerHeight="10" orient="auto"><path d="M 1 5 L 11 10 L 1 15 Z" style="fill: black; stroke-width: 1px; stroke-linecap: round; stroke-dasharray: 10000, 1; stroke: black;"/></marker></defs><g class="djs-group"><g class="djs-element djs-shape" style = "display:block" transform="translate(79 -16)"><g class="djs-visual"><text lineHeight="1.2" class="djs-label" style="font-family: Arial, sans-serif; font-size: 30; font-weight: normal; fill: rgb(0, 0, 0);"><tspan x="8" y="10" font-size="30">Teilnehmer Domain Story(bestehendeTeilnehmern)</tspan></text><text lineHeight="1.2" class="djs-label" style="font-family: Arial, sans-serif; font-size: 12; font-weight: normal; fill: rgb(0, 0, 0);"><tspan x="8" y="30" font-size="12">Teilnehmerdaten für Organisation</tspan></text><text lineHeight="1.2" class="djs-label" style="font-family: Arial, sans-serif; font-size: 12; font-weight: normal; fill: rgb(0, 0, 0);"><tspan x="8" y="45" font-size="12"></tspan></text></g></g></g><g class="djs-group"><g class="djs-element djs-shape" data-element-id="shape_1385" style="display: block;" transform="matrix(1 0 0 1 892 287)"><g class="djs-visual"><svg xmlns="http://www.w3.org/2000/svg" fill=" black" width="48.75" height="48.75" viewBox="0 0 24 26" x="12.5" y="12.5"><path fill="none" d="M0 0h24v24H0V0z"/><path d="M8 16h8v2H8zm0-4h8v2H8zm6-10H6c-1.1 0-2 .9-2 2v16c0 1.1.89 2 1.99 2H18c1.1 0 2-.9 2-2V8l-6-6zm4 18H6V4h7v5h5v11z"/></svg><text lineHeight="1.2" class="djs-label" style="font-family: Arial, sans-serif; font-size: 12px; font-weight: normal; fill: rgb(0, 0, 0);"><tspan x="6.8125" y="74.75">Hackathon-</tspan><tspan x="0" y="88.75">Teilnehmerform</tspan><tspan x="26.9921875" y="102.75">ular</tspan></text></g><rect class="djs-hit djs-hit-all" x="0" y="0" width="75" height="75" style="fill: none; stroke-opacity: 0; stroke: white; stroke-width: 15px;"/><rect x="-6" y="-6" width="87" height="87" class="djs-outline" style="fill: none;"/></g></g><g class="djs-group"><g class="djs-element djs-shape" data-element-id="shape_3708" style="display: block;" transform="matrix(1 0 0 1 302 283)"><g class="djs-visual"><svg xmlns="http://www.w3.org/2000/svg" fill=" black" width="48.75" height="48.75" viewBox="0 0 24 26" x="12.5" y="12.5"><path fill="none" d="M0 0h24v24H0V0z"/><path d="M8 16h8v2H8zm0-4h8v2H8zm6-10H6c-1.1 0-2 .9-2 2v16c0 1.1.89 2 1.99 2H18c1.1 0 2-.9 2-2V8l-6-6zm4 18H6V4h7v5h5v11z"/></svg><text lineHeight="1.2" class="djs-label" style="font-family: Arial, sans-serif; font-size: 12px; font-weight: normal; fill: rgb(0, 0, 0);"><tspan x="13.3203125" y="74.75">Liste von </tspan><tspan x="0" y="88.75">Teilnehmerdat</tspan><tspan x="30.65625" y="102.75">en</tspan></text></g><rect class="djs-hit djs-hit-all" x="0" y="0" width="75" height="75" style="fill: none; stroke-opacity: 0; stroke: white; stroke-width: 15px;"/><rect x="-6" y="-6" width="87" height="87" class="djs-outline" style="fill: none;"/></g></g><g class="djs-group"><g class="djs-element djs-shape" data-element-id="shape_7758" style="display: block;" transform="matrix(1 0 0 1 1040 293)"><g class="djs-visual"><rect x="0" y="0" width="100" height="56" rx="0" ry="0" style="stroke: none; stroke-width: 2px; fill: none;"/><path d="m 0, 0 m 10,0 l -10,0 l 0,56 l 10,0" style="fill: none; stroke-width: 2px; stroke: black;"/><text lineHeight="1.2" class="djs-label" style="font-family: Arial, sans-serif; font-size: 12px; font-weight: normal; fill: black;"><tspan x="5" y="15.799999999999999">wählt eine </tspan><tspan x="5" y="30.199999999999996">Veranstaltung </tspan><tspan x="5" y="44.599999999999994">aus</tspan></text></g><rect class="djs-hit djs-hit-all" x="0" y="0" width="100" height="56" style="fill: none; stroke-opacity: 0; stroke: white; stroke-width: 15px;"/><rect x="-6" y="-6" width="112" height="68" class="djs-outline" style="fill: none;"/></g></g><g class="djs-group"><g class="djs-element djs-shape" data-element-id="shape_4359" style="display: block;" transform="matrix(1 0 0 1 892 127)"><g class="djs-visual"><svg xmlns="http://www.w3.org/2000/svg" fill=" black" width="75" height="75" viewBox="0 0 24 26"><path d="M0 0h24v24H0z" fill="none"/><path d="M16.5 13c-1.2 0-3.07.34-4.5 1-1.43-.67-3.3-1-4.5-1C5.33 13 1 14.08 1 16.25V19h22v-2.75c0-2.17-4.33-3.25-6.5-3.25zm-4 4.5h-10v-1.25c0-.54 2.56-1.75 5-1.75s5 1.21 5 1.75v1.25zm9 0H14v-1.25c0-.46-.2-.86-.52-1.22.88-.3 1.96-.53 3.02-.53 2.44 0 5 1.21 5 1.75v1.25zM7.5 12c1.93 0 3.5-1.57 3.5-3.5S9.43 5 7.5 5 4 6.57 4 8.5 5.57 12 7.5 12zm0-5.5c1.1 0 2 .9 2 2s-.9 2-2 2-2-.9-2-2 .9-2 2-2zm9 5.5c1.93 0 3.5-1.57 3.5-3.5S18.43 5 16.5 5 13 6.57 13 8.5s1.57 3.5 3.5 3.5zm0-5.5c1.1 0 2 .9 2 2s-.9 2-2 2-2-.9-2-2 .9-2 2-2z"/></svg><text lineHeight="1.2" class="djs-label" style="font-family: Arial, sans-serif; font-size: 12px; font-weight: normal; fill: rgb(0, 0, 0);"><tspan x="4.6484375" y="75">Teilnehmern</tspan></text></g><rect class="djs-hit djs-hit-all" x="0" y="0" width="75" height="75" style="fill: none; stroke-opacity: 0; stroke: white; stroke-width: 15px;"/><rect x="-6" y="-6" width="87" height="87" class="djs-outline" style="fill: none;"/></g></g><g class="djs-group"><g class="djs-element djs-shape" data-element-id="shape_9003" style="display: block;" transform="matrix(1 0 0 1 552 283)"><g class="djs-visual"><svg xmlns="http://www.w3.org/2000/svg" fill=" black" viewBox="0 0 24 26" width="75" height="75"><path d="M20,18c1.1,0,2-0.9,2-2V6c0-1.1-0.9-2-2-2H4C2.9,4,2,4.9,2,6v10c0,1.1,0.9,2,2,2H0v2h24v-2H20z M4,6h16v10H4V6z"/></svg><text lineHeight="1.2" class="djs-label" style="font-family: Arial, sans-serif; font-size: 12px; font-weight: normal; fill: rgb(0, 0, 0);"><tspan x="7.6484375" y="75">Teilnehmer </tspan><tspan x="11.3125" y="89">-Manager</tspan></text></g><rect class="djs-hit djs-hit-all" x="0" y="0" width="75" height="75" style="fill: none; stroke-opacity: 0; stroke: white; stroke-width: 15px;"/><rect x="-6" y="-6" width="87" height="87" class="djs-outline" style="fill: none;"/></g></g><g class="djs-group"><g class="djs-element djs-shape" data-element-id="shape_8415" style="display: block;" transform="matrix(1 0 0 1 680 50)"><g class="djs-visual"><rect x="0" y="0" width="100" height="42" rx="0" ry="0" style="stroke: none; stroke-width: 2px; fill: none;"/><path d="m 0, 0 m 10,0 l -10,0 l 0,42 l 10,0" style="fill: none; stroke-width: 2px; stroke: black;"/><text lineHeight="1.2" class="djs-label" style="font-family: Arial, sans-serif; font-size: 12px; font-weight: normal; fill: black;"><tspan x="5" y="15.799999999999999">Link zu der </tspan><tspan x="5" y="30.199999999999996">Veranstaltung</tspan></text></g><rect class="djs-hit djs-hit-all" x="0" y="0" width="100" height="42" style="fill: none; stroke-opacity: 0; stroke: white; stroke-width: 15px;"/><rect x="-6" y="-6" width="112" height="54" class="djs-outline" style="fill: none;"/></g></g><g class="djs-group"><g class="djs-element djs-shape" data-element-id="shape_4210" style="display: block;" transform="matrix(1 0 0 1 672 137)"><g class="djs-visual"><svg xmlns="http://www.w3.org/2000/svg" fill=" black" viewBox="0 0 24 26" width="48.75" height="48.75" x="12.5" y="12.5"><path fill="none" d="M0,0h24v24H0V0z"/><path fill-opacity="0.9" d="M12,1.95c-5.52,0-10,4.48-10,10s4.48,10,10,10h5v-2h-5c-4.34,0-8-3.66-8-8s3.66-8,8-8s8,3.66,8,8v1.43 c0,0.79-0.71,1.57-1.5,1.57S17,14.17,17,13.38v-1.43c0-2.76-2.24-5-5-5s-5,2.24-5,5s2.24,5,5,5c1.38,0,2.64-0.56,3.54-1.47 c0.65,0.89,1.77,1.47,2.96,1.47c1.97,0,3.5-1.6,3.5-3.57v-1.43C22,6.43,17.52,1.95,12,1.95z M12,14.95c-1.66,0-3-1.34-3-3 s1.34-3,3-3s3,1.34,3,3S13.66,14.95,12,14.95z"/></svg><text lineHeight="1.2" class="djs-label" style="font-family: Arial, sans-serif; font-size: 12px; font-weight: normal; fill: rgb(0, 0, 0);"><tspan x="0" y="74.75">Veranstaltungsi</tspan><tspan x="0" y="88.75">nfo-Notification</tspan></text></g><rect class="djs-hit djs-hit-all" x="0" y="0" width="75" height="75" style="fill: none; stroke-opacity: 0; stroke: white; stroke-width: 15px;"/><rect x="-6" y="-6" width="87" height="87" class="djs-outline" style="fill: none;"/></g></g><g class="djs-group"><g class="djs-element djs-shape" data-element-id="shape_6462" style="display: block;" transform="matrix(1 0 0 1 342 137)"><g class="djs-visual"><svg xmlns="http://www.w3.org/2000/svg" fill=" black" height="48.75" viewBox="0 0 24 26" width="48.75" x="12.5" y="12.5"><path d="M0 0h24v24H0V0z" fill="none"/><path d="M20 2H4c-1.1 0-2 .9-2 2v18l4-4h14c1.1 0 2-.9 2-2V4c0-1.1-.9-2-2-2zm0 14H6l-2 2V4h16v12z"/></svg><text lineHeight="1.2" class="djs-label" style="font-family: Arial, sans-serif; font-size: 12px; font-weight: normal; fill: rgb(0, 0, 0);"><tspan x="0.640625" y="74.75">Veranstaltung</tspan></text></g><rect class="djs-hit djs-hit-all" x="0" y="0" width="75" height="75" style="fill: none; stroke-opacity: 0; stroke: white; stroke-width: 15px;"/><rect x="-6" y="-6" width="87" height="87" class="djs-outline" style="fill: none;"/></g></g><g class="djs-group"><g class="djs-element djs-shape" data-element-id="shape_4589" style="display: block;" transform="matrix(1 0 0 1 75 283)"><g class="djs-visual"><svg xmlns="http://www.w3.org/2000/svg" fill=" black" viewBox="0 0 24 26" width="75" height="75"><path d="M12 5.9c1.16 0 2.1.94 2.1 2.1s-.94 2.1-2.1 2.1S9.9 9.16 9.9 8s.94-2.1 2.1-2.1m0 9c2.97 0 6.1 1.46 6.1 2.1v1.1H5.9V17c0-.64 3.13-2.1 6.1-2.1M12 4C9.79 4 8 5.79 8 8s1.79 4 4 4 4-1.79 4-4-1.79-4-4-4zm0 9c-2.67 0-8 1.34-8 4v3h16v-3c0-2.66-5.33-4-8-4z"/><path d="M0 0h24v24H0z" fill="none"/></svg><text lineHeight="1.2" class="djs-label" style="font-family: Arial, sans-serif; font-size: 12px; font-weight: normal; fill: rgb(0, 0, 0);"><tspan x="5.6484375" y="75">Organisator</tspan></text></g><rect class="djs-hit djs-hit-all" x="0" y="0" width="75" height="75" style="fill: none; stroke-opacity: 0; stroke: white; stroke-width: 15px;"/><rect x="-6" y="-6" width="87" height="87" class="djs-outline" style="fill: none;"/></g></g><g class="djs-group"><g class="djs-element djs-connection" data-element-id="connection_3526" style="display: block;"><g class="djs-visual"><polyline points="971,324 1040,322 " style="stroke: rgb(0, 0, 0); stroke-width: 1.5px; stroke-linejoin: round; stroke-dasharray: 5, 5;"/></g><polyline points="971,324 1040,322 " class="djs-hit djs-hit-stroke" style="fill: none; stroke-opacity: 0; stroke: white; stroke-width: 15px;"/><rect x="965" y="316" width="81" height="14" class="djs-outline" style="fill: none;"/></g></g><g class="djs-group"><g class="djs-element djs-connection" data-element-id="connection_9917" style="display: block;"><g class="djs-visual"><polyline points="717,139 726,92 " style="stroke: rgb(0, 0, 0); stroke-width: 1.5px; stroke-linejoin: round; stroke-dasharray: 5, 5;"/></g><polyline points="717,139 726,92 " class="djs-hit djs-hit-stroke" style="fill: none; stroke-opacity: 0; stroke: white; stroke-width: 15px;"/><rect x="711" y="86" width="21" height="59" class="djs-outline" style="fill: none;"/></g></g><g class="djs-group"><g class="djs-element djs-connection" data-element-id="connection_5682" style="display: block;"><g class="djs-visual"><polyline points="113,283 113,185 342,185 " style="stroke: black; fill: none; stroke-width: 1.5px; stroke-linejoin: round; marker-end: url('#activity-black-black-8i0ytug3qskxdccyluv85k5t1');"/><text lineHeight="1.2" wordWrap="break-word" overflowWrap="break-word" hyphens="auto" class="djs-label" style="font-family: Arial, sans-serif; font-size: 11px; font-weight: normal; fill: black;"><tspan x="201.1" y="200">erstellt</tspan></text><text lineHeight="1.2" position="absolute" class="djs-labelNumber" style="font-family: Courier; font-size: 150px; font-weight: normal; fill: rgb(66, 174, 187);"><tspan x="176.5" y="181">.</tspan></text><text lineHeight="1.2" backgroundColor="green" position="absolute" class="djs-labelNumber" style="font-family: Arial, sans-serif; font-size: 11px; font-weight: normal; fill: white;"><tspan x="215.5" y="176">01</tspan></text></g><polyline points="113,283 113,185 342,185 " class="djs-hit djs-hit-stroke" style="fill: none; stroke-opacity: 0; stroke: white; stroke-width: 15px;"/><rect x="107" y="179" width="241" height="110" class="djs-outline" style="fill: none;"/></g></g><g class="djs-group"><g class="djs-element djs-connection" data-element-id="connection_4822" style="display: block;"><g class="djs-visual"><polyline points="423,175 572,175 572,283 " style="stroke: black; fill: none; stroke-width: 1.5px; stroke-linejoin: round; marker-end: url('#activity-black-black-8i0ytug3qskxdccyluv85k5t1');"/></g><polyline points="423,175 572,175 572,283 " class="djs-hit djs-hit-stroke" style="fill: none; stroke-opacity: 0; stroke: white; stroke-width: 15px;"/><rect x="417" y="169" width="161" height="120" class="djs-outline" style="fill: none;"/></g></g><g class="djs-group"><g class="djs-element djs-connection" data-element-id="connection_9871" style="display: block;"><g class="djs-visual"><polyline points="590,283 590,175 670,175 " style="stroke: black; fill: none; stroke-width: 1.5px; stroke-linejoin: round; marker-end: url('#activity-black-black-8i0ytug3qskxdccyluv85k5t1');"/><text lineHeight="1.2" wordWrap="break-word" overflowWrap="break-word" hyphens="auto" class="djs-label" style="font-family: Arial, sans-serif; font-size: 11px; font-weight: normal; fill: black;"><tspan x="608.7" y="190">sendet</tspan></text><text lineHeight="1.2" position="absolute" class="djs-labelNumber" style="font-family: Courier; font-size: 150px; font-weight: normal; fill: rgb(66, 174, 187);"><tspan x="579" y="171">.</tspan></text><text lineHeight="1.2" backgroundColor="green" position="absolute" class="djs-labelNumber" style="font-family: Arial, sans-serif; font-size: 11px; font-weight: normal; fill: white;"><tspan x="618" y="166">02</tspan></text></g><polyline points="590,283 590,175 670,175 " class="djs-hit djs-hit-stroke" style="fill: none; stroke-opacity: 0; stroke: white; stroke-width: 15px;"/><rect x="584" y="169" width="92" height="120" class="djs-outline" style="fill: none;"/></g></g><g class="djs-group"><g class="djs-element djs-connection" data-element-id="connection_4936" style="display: block;"><g class="djs-visual"><polyline points="753,175 892,175 " style="stroke: black; fill: none; stroke-width: 1.5px; stroke-linejoin: round; marker-end: url('#activity-black-black-8i0ytug3qskxdccyluv85k5t1');"/></g><polyline points="753,175 892,175 " class="djs-hit djs-hit-stroke" style="fill: none; stroke-opacity: 0; stroke: white; stroke-width: 15px;"/><rect x="747" y="169" width="151" height="12" class="djs-outline" style="fill: none;"/></g></g><g class="djs-group"><g class="djs-element djs-connection" data-element-id="connection_5419" style="display: block;"><g class="djs-visual"><polyline points="930,212 930,287 " style="stroke: black; fill: none; stroke-width: 1.5px; stroke-linejoin: round; marker-end: url('#activity-black-black-8i0ytug3qskxdccyluv85k5t1');"/><text lineHeight="1.2" wordWrap="break-word" overflowWrap="break-word" hyphens="auto" class="djs-label" style="font-family: Arial, sans-serif; font-size: 11px; font-weight: normal; fill: black;"><tspan x="944" y="249.5">füllen aus</tspan></text><text lineHeight="1.2" position="absolute" class="djs-labelNumber" style="font-family: Courier; font-size: 150px; font-weight: normal; fill: rgb(66, 174, 187);"><tspan x="879" y="230.5">.</tspan></text><text lineHeight="1.2" backgroundColor="green" position="absolute" class="djs-labelNumber" style="font-family: Arial, sans-serif; font-size: 11px; font-weight: normal; fill: white;"><tspan x="918" y="225.5">03</tspan></text></g><polyline points="930,212 930,287 " class="djs-hit djs-hit-stroke" style="fill: none; stroke-opacity: 0; stroke: white; stroke-width: 15px;"/><rect x="924" y="206" width="12" height="87" class="djs-outline" style="fill: none;"/></g></g><g class="djs-group"><g class="djs-element djs-connection" data-element-id="connection_2564" style="display: block;"><g class="djs-visual"><polyline points="892,325 637,325 " style="stroke: black; fill: none; stroke-width: 1.5px; stroke-linejoin: round; marker-end: url('#activity-black-black-8i0ytug3qskxdccyluv85k5t1');"/></g><polyline points="892,325 637,325 " class="djs-hit djs-hit-stroke" style="fill: none; stroke-opacity: 0; stroke: white; stroke-width: 15px;"/><rect x="631" y="319" width="267" height="12" class="djs-outline" style="fill: none;"/></g></g><g class="djs-group"><g class="djs-element djs-connection" data-element-id="connection_8115" style="display: block;"><g class="djs-visual"><polyline points="552,322 386,325 " style="stroke: black; fill: none; stroke-width: 1.5px; stroke-linejoin: round; marker-end: url('#activity-black-black-8i0ytug3qskxdccyluv85k5t1');"/><text lineHeight="1.2" wordWrap="break-word" overflowWrap="break-word" hyphens="auto" class="djs-label" style="font-family: Arial, sans-serif; font-size: 11px; font-weight: normal; fill: black;"><tspan x="483.05751962147474" y="338.1548822711517">sendet</tspan></text><text lineHeight="1.2" position="absolute" class="djs-labelNumber" style="font-family: Courier; font-size: 150px; font-weight: normal; fill: rgb(66, 174, 187);"><tspan x="418.05751962147474" y="319.1548822711517">.</tspan></text><text lineHeight="1.2" backgroundColor="green" position="absolute" class="djs-labelNumber" style="font-family: Arial, sans-serif; font-size: 11px; font-weight: normal; fill: white;"><tspan x="457.05751962147474" y="314.1548822711517">04</tspan></text></g><polyline points="552,322 386,325 " class="djs-hit djs-hit-stroke" style="fill: none; stroke-opacity: 0; stroke: white; stroke-width: 15px;"/><rect x="380" y="316" width="178" height="15" class="djs-outline" style="fill: none;"/></g></g><g class="djs-group"><g class="djs-element djs-connection" data-element-id="connection_2378" style="display: block;"><g class="djs-visual"><polyline points="302,322 159,324 " style="stroke: black; fill: none; stroke-width: 1.5px; stroke-linejoin: round; marker-end: url('#activity-black-black-8i0ytug3qskxdccyluv85k5t1');"/></g><polyline points="302,322 159,324 " class="djs-hit djs-hit-stroke" style="fill: none; stroke-opacity: 0; stroke: white; stroke-width: 15px;"/><rect x="153" y="316" width="155" height="14" class="djs-outline" style="fill: none;"/></g></g></svg>