<?xml version="1.0" encoding="utf-8"?>
<!-- created with bpmn-js / http://bpmn.io -->
<!DOCTYPE svg PUBLIC "-//W3C//DTD SVG 1.1//EN" "http://www.w3.org/Graphics/SVG/1.1/DTD/svg11.dtd">
<svg xmlns="http://www.w3.org/2000/svg" xmlns:xlink="http://www.w3.org/1999/xlink" width="1387" height=" 571.75" viewBox="69 -121 1387 476.75" version="1.1"><defs><marker id="activity-black-black-30di30v1e4j38kah60pkbf0xp" viewBox="0 0 20 20" refX="11" refY="10" markerWidth="10" markerHeight="10" orient="auto"><path d="M 1 5 L 11 10 L 1 15 Z" style="fill: black; stroke-width: 1px; stroke-linecap: round; stroke-dasharray: 10000, 1; stroke: black;"/></marker></defs><g class="djs-group"><g class="djs-element djs-shape" style = "display:block" transform="translate(79 -86)"><g class="djs-visual"><text lineHeight="1.2" class="djs-label" style="font-family: Arial, sans-serif; font-size: 30; font-weight: normal; fill: rgb(0, 0, 0);"><tspan x="8" y="10" font-size="30">Teilnehmer Domain Story</tspan></text><text lineHeight="1.2" class="djs-label" style="font-family: Arial, sans-serif; font-size: 12; font-weight: normal; fill: rgb(0, 0, 0);"><tspan x="8" y="30" font-size="12"></tspan></text></g></g></g><g class="djs-group"><g class="djs-element djs-shape" data-element-id="shape_7526" style="display: block;" transform="matrix(1 0 0 1 1350 220)"><g class="djs-visual"><rect x="0" y="0" width="100" height="56" rx="0" ry="0" style="stroke: none; stroke-width: 2px; fill: none;"/><path d="m 0, 0 m 10,0 l -10,0 l 0,56 l 10,0" style="fill: none; stroke-width: 2px; stroke: black;"/><text lineHeight="1.2" class="djs-label" style="font-family: Arial, sans-serif; font-size: 12px; font-weight: normal; fill: black;"><tspan x="5" y="15.799999999999999">Teaminfo,Essen</tspan><tspan x="5" y="30.199999999999996">swusch, T-Shirt </tspan><tspan x="5" y="44.599999999999994">Grösse usw.</tspan></text></g><rect class="djs-hit djs-hit-all" x="0" y="0" width="100" height="56" style="fill: none; stroke-opacity: 0; stroke: white; stroke-width: 15px;"/><rect x="-6" y="-6" width="112" height="68" class="djs-outline" style="fill: none;"/></g></g><g class="djs-group"><g class="djs-element djs-shape" data-element-id="shape_2623" style="display: block;" transform="matrix(1 0 0 1 1212 312)"><g class="djs-visual"><svg xmlns="http://www.w3.org/2000/svg" fill=" black" width="48.75" height="48.75" viewBox="0 0 24 26" x="12.5" y="12.5"><path fill="none" d="M0 0h24v24H0V0z"/><path d="M8 16h8v2H8zm0-4h8v2H8zm6-10H6c-1.1 0-2 .9-2 2v16c0 1.1.89 2 1.99 2H18c1.1 0 2-.9 2-2V8l-6-6zm4 18H6V4h7v5h5v11z"/></svg><text lineHeight="1.2" class="djs-label" style="font-family: Arial, sans-serif; font-size: 12px; font-weight: normal; fill: rgb(0, 0, 0);"><tspan x="12.3125" y="74.75">Daten für </tspan><tspan x="0.640625" y="88.75">Veranstaltung</tspan></text></g><rect class="djs-hit djs-hit-all" x="0" y="0" width="75" height="75" style="fill: none; stroke-opacity: 0; stroke: white; stroke-width: 15px;"/><rect x="-6" y="-6" width="87" height="87" class="djs-outline" style="fill: none;"/></g></g><g class="djs-group"><g class="djs-element djs-shape" data-element-id="shape_4469" style="display: block;" transform="matrix(1 0 0 1 1212 50)"><g class="djs-visual"><svg xmlns="http://www.w3.org/2000/svg" fill=" black" width="48.75" height="48.75" viewBox="0 0 24 26" x="12.5" y="12.5"><path fill="none" d="M0 0h24v24H0V0z"/><path d="M8 16h8v2H8zm0-4h8v2H8zm6-10H6c-1.1 0-2 .9-2 2v16c0 1.1.89 2 1.99 2H18c1.1 0 2-.9 2-2V8l-6-6zm4 18H6V4h7v5h5v11z"/></svg><text lineHeight="1.2" class="djs-label" style="font-family: Arial, sans-serif; font-size: 12px; font-weight: normal; fill: rgb(0, 0, 0);"><tspan x="0" y="74.75">Registrierungs</tspan><tspan x="15.4921875" y="88.75">formular</tspan></text></g><rect class="djs-hit djs-hit-all" x="0" y="0" width="75" height="75" style="fill: none; stroke-opacity: 0; stroke: white; stroke-width: 15px;"/><rect x="-6" y="-6" width="87" height="87" class="djs-outline" style="fill: none;"/></g></g><g class="djs-group"><g class="djs-element djs-shape" data-element-id="shape_6768" style="display: block;" transform="matrix(1 0 0 1 1022 50)"><g class="djs-visual"><svg xmlns="http://www.w3.org/2000/svg" fill=" black" viewBox="0 0 24 26" width="75" height="75"><path d="M12 5.9c1.16 0 2.1.94 2.1 2.1s-.94 2.1-2.1 2.1S9.9 9.16 9.9 8s.94-2.1 2.1-2.1m0 9c2.97 0 6.1 1.46 6.1 2.1v1.1H5.9V17c0-.64 3.13-2.1 6.1-2.1M12 4C9.79 4 8 5.79 8 8s1.79 4 4 4 4-1.79 4-4-1.79-4-4-4zm0 9c-2.67 0-8 1.34-8 4v3h16v-3c0-2.66-5.33-4-8-4z"/><path d="M0 0h24v24H0z" fill="none"/></svg><text lineHeight="1.2" class="djs-label" style="font-family: Arial, sans-serif; font-size: 12px; font-weight: normal; fill: rgb(0, 0, 0);"><tspan x="22.9921875" y="75">Neue </tspan><tspan x="7.6484375" y="89">Teilnehmer</tspan></text></g><rect class="djs-hit djs-hit-all" x="0" y="0" width="75" height="75" style="fill: none; stroke-opacity: 0; stroke: white; stroke-width: 15px;"/><rect x="-6" y="-6" width="87" height="87" class="djs-outline" style="fill: none;"/></g></g><g class="djs-group"><g class="djs-element djs-shape" data-element-id="shape_0213" style="display: block;" transform="matrix(1 0 0 1 712 60)"><g class="djs-visual"><svg xmlns="http://www.w3.org/2000/svg" fill=" black" height="48.75" viewBox="0 0 24 26" width="48.75" x="12.5" y="12.5"><path d="M0 0h24v24H0V0z" fill="none"/><path d="M20 2H4c-1.1 0-2 .9-2 2v18l4-4h14c1.1 0 2-.9 2-2V4c0-1.1-.9-2-2-2zm0 14H6l-2 2V4h16v12z"/></svg><text lineHeight="1.2" class="djs-label" style="font-family: Arial, sans-serif; font-size: 12px; font-weight: normal; fill: rgb(0, 0, 0);"><tspan x="0.640625" y="74.75">Veranstaltung </tspan><tspan x="13.65625" y="88.75">-Anzeige</tspan></text></g><rect class="djs-hit djs-hit-all" x="0" y="0" width="75" height="75" style="fill: none; stroke-opacity: 0; stroke: white; stroke-width: 15px;"/><rect x="-6" y="-6" width="87" height="87" class="djs-outline" style="fill: none;"/></g></g><g class="djs-group"><g class="djs-element djs-shape hover" data-element-id="shape_3708" style="display: block;" transform="matrix(1 0 0 1 302 300)"><g class="djs-visual"><svg xmlns="http://www.w3.org/2000/svg" fill=" black" width="48.75" height="48.75" viewBox="0 0 24 26" x="12.5" y="12.5"><path fill="none" d="M0 0h24v24H0V0z"/><path d="M8 16h8v2H8zm0-4h8v2H8zm6-10H6c-1.1 0-2 .9-2 2v16c0 1.1.89 2 1.99 2H18c1.1 0 2-.9 2-2V8l-6-6zm4 18H6V4h7v5h5v11z"/></svg><text lineHeight="1.2" class="djs-label" style="font-family: Arial, sans-serif; font-size: 12px; font-weight: normal; fill: rgb(0, 0, 0);"><tspan x="13.3203125" y="74.75">Liste von </tspan><tspan x="0" y="88.75">Teilnehmerdat</tspan><tspan x="30.65625" y="102.75">en</tspan></text></g><rect class="djs-hit djs-hit-all" x="0" y="0" width="75" height="75" style="fill: none; stroke-opacity: 0; stroke: white; stroke-width: 15px;"/><rect x="-6" y="-6" width="87" height="87" class="djs-outline" style="fill: none;"/></g></g><g class="djs-group"><g class="djs-element djs-shape" data-element-id="shape_9003" style="display: block;" transform="matrix(1 0 0 1 592 180)"><g class="djs-visual"><svg xmlns="http://www.w3.org/2000/svg" fill=" black" viewBox="0 0 24 26" width="75" height="75"><path d="M20,18c1.1,0,2-0.9,2-2V6c0-1.1-0.9-2-2-2H4C2.9,4,2,4.9,2,6v10c0,1.1,0.9,2,2,2H0v2h24v-2H20z M4,6h16v10H4V6z"/></svg><text lineHeight="1.2" class="djs-label" style="font-family: Arial, sans-serif; font-size: 12px; font-weight: normal; fill: rgb(0, 0, 0);"><tspan x="0" y="75">LNDC-Backend</tspan></text></g><rect class="djs-hit djs-hit-all" x="0" y="0" width="75" height="75" style="fill: none; stroke-opacity: 0; stroke: white; stroke-width: 15px;"/><rect x="-6" y="-6" width="87" height="87" class="djs-outline" style="fill: none;"/></g></g><g class="djs-group"><g class="djs-element djs-shape" data-element-id="shape_6462" style="display: block;" transform="matrix(1 0 0 1 302 50)"><g class="djs-visual"><svg xmlns="http://www.w3.org/2000/svg" fill=" black" height="48.75" viewBox="0 0 24 26" width="48.75" x="12.5" y="12.5"><path d="M0 0h24v24H0V0z" fill="none"/><path d="M20 2H4c-1.1 0-2 .9-2 2v18l4-4h14c1.1 0 2-.9 2-2V4c0-1.1-.9-2-2-2zm0 14H6l-2 2V4h16v12z"/></svg><text lineHeight="1.2" class="djs-label" style="font-family: Arial, sans-serif; font-size: 12px; font-weight: normal; fill: rgb(0, 0, 0);"><tspan x="7.1484375" y="74.75">Hackcthon-</tspan><tspan x="0.640625" y="88.75">Veranstaltung</tspan></text></g><rect class="djs-hit djs-hit-all" x="0" y="0" width="75" height="75" style="fill: none; stroke-opacity: 0; stroke: white; stroke-width: 15px;"/><rect x="-6" y="-6" width="87" height="87" class="djs-outline" style="fill: none;"/></g></g><g class="djs-group"><g class="djs-element djs-shape" data-element-id="shape_4589" style="display: block;" transform="matrix(1 0 0 1 75 186)"><g class="djs-visual"><svg xmlns="http://www.w3.org/2000/svg" fill=" black" viewBox="0 0 24 26" width="75" height="75"><path d="M12 5.9c1.16 0 2.1.94 2.1 2.1s-.94 2.1-2.1 2.1S9.9 9.16 9.9 8s.94-2.1 2.1-2.1m0 9c2.97 0 6.1 1.46 6.1 2.1v1.1H5.9V17c0-.64 3.13-2.1 6.1-2.1M12 4C9.79 4 8 5.79 8 8s1.79 4 4 4 4-1.79 4-4-1.79-4-4-4zm0 9c-2.67 0-8 1.34-8 4v3h16v-3c0-2.66-5.33-4-8-4z"/><path d="M0 0h24v24H0z" fill="none"/></svg><text lineHeight="1.2" class="djs-label" style="font-family: Arial, sans-serif; font-size: 12px; font-weight: normal; fill: rgb(0, 0, 0);"><tspan x="5.6484375" y="75">Organisator</tspan></text></g><rect class="djs-hit djs-hit-all" x="0" y="0" width="75" height="75" style="fill: none; stroke-opacity: 0; stroke: white; stroke-width: 15px;"/><rect x="-6" y="-6" width="87" height="87" class="djs-outline" style="fill: none;"/></g></g><g class="djs-group"><g class="djs-element djs-connection" data-element-id="connection_0324" style="display: block;"><g class="djs-visual"><polyline points="1275,333 1359,276 " style="stroke: rgb(0, 0, 0); stroke-width: 1.5px; stroke-linejoin: round; stroke-dasharray: 5, 5;"/></g><polyline points="1275,333 1359,276 " class="djs-hit djs-hit-stroke" style="fill: none; stroke-opacity: 0; stroke: white; stroke-width: 15px;"/><rect x="1269" y="270" width="96" height="69" class="djs-outline" style="fill: none;"/></g></g><g class="djs-group"><g class="djs-element djs-connection" data-element-id="connection_8137" style="display: block;"><g class="djs-visual"><polyline points="113,186 113,98 302,98 " style="stroke: black; fill: none; stroke-width: 1.5px; stroke-linejoin: round; marker-end: url('#activity-black-black-30di30v1e4j38kah60pkbf0xp');"/><text lineHeight="1.2" wordWrap="break-word" overflowWrap="break-word" hyphens="auto" class="djs-label" style="font-family: Arial, sans-serif; font-size: 11px; font-weight: normal; fill: black;"><tspan x="181.1" y="113">erstellt</tspan></text><text lineHeight="1.2" position="absolute" class="djs-labelNumber" style="font-family: Courier; font-size: 150px; font-weight: normal; fill: rgb(66, 174, 187);"><tspan x="156.5" y="94">.</tspan></text><text lineHeight="1.2" backgroundColor="green" position="absolute" class="djs-labelNumber" style="font-family: Arial, sans-serif; font-size: 11px; font-weight: normal; fill: white;"><tspan x="195.5" y="89">01</tspan></text></g><polyline points="113,186 113,98 302,98 " class="djs-hit djs-hit-stroke" style="fill: none; stroke-opacity: 0; stroke: white; stroke-width: 15px;"/><rect x="107" y="92" width="201" height="100" class="djs-outline" style="fill: none;"/></g></g><g class="djs-group"><g class="djs-element djs-connection" data-element-id="connection_9041" style="display: block;"><g class="djs-visual"><polyline points="382,98 630,98 630,180 " style="stroke: black; fill: none; stroke-width: 1.5px; stroke-linejoin: round; marker-end: url('#activity-black-black-30di30v1e4j38kah60pkbf0xp');"/></g><polyline points="382,98 630,98 630,180 " class="djs-hit djs-hit-stroke" style="fill: none; stroke-opacity: 0; stroke: white; stroke-width: 15px;"/><rect x="376" y="92" width="260" height="94" class="djs-outline" style="fill: none;"/></g></g><g class="djs-group"><g class="djs-element djs-connection" data-element-id="connection_4378" style="display: block;"><g class="djs-visual"><polyline points="673,218 750,218 750,163.75 " style="stroke: black; fill: none; stroke-width: 1.5px; stroke-linejoin: round; marker-end: url('#activity-black-black-30di30v1e4j38kah60pkbf0xp');"/><text lineHeight="1.2" position="absolute" class="djs-labelNumber" style="font-family: Courier; font-size: 150px; font-weight: normal; fill: rgb(66, 174, 187);"><tspan x="660.5" y="214">.</tspan></text><text lineHeight="1.2" backgroundColor="green" position="absolute" class="djs-labelNumber" style="font-family: Arial, sans-serif; font-size: 11px; font-weight: normal; fill: white;"><tspan x="699.5" y="209">02</tspan></text></g><polyline points="673,218 750,218 750,163.75 " class="djs-hit djs-hit-stroke" style="fill: none; stroke-opacity: 0; stroke: white; stroke-width: 15px;"/><rect x="667" y="157.75" width="89" height="66.25" class="djs-outline" style="fill: none;"/></g></g><g class="djs-group"><g class="djs-element djs-connection" data-element-id="connection_1953" style="display: block;"><g class="djs-visual"><polyline points="1022,88 790,88 " style="stroke: black; fill: none; stroke-width: 1.5px; stroke-linejoin: round; marker-end: url('#activity-black-black-30di30v1e4j38kah60pkbf0xp');"/><text lineHeight="1.2" wordWrap="break-word" overflowWrap="break-word" hyphens="auto" class="djs-label" style="font-family: Arial, sans-serif; font-size: 11px; font-weight: normal; fill: black;"><tspan x="877.05" y="103">wählt aus</tspan></text><text lineHeight="1.2" position="absolute" class="djs-labelNumber" style="font-family: Courier; font-size: 150px; font-weight: normal; fill: rgb(66, 174, 187);"><tspan x="855" y="84">.</tspan></text><text lineHeight="1.2" backgroundColor="green" position="absolute" class="djs-labelNumber" style="font-family: Arial, sans-serif; font-size: 11px; font-weight: normal; fill: white;"><tspan x="894" y="79">03</tspan></text></g><polyline points="1022,88 790,88 " class="djs-hit djs-hit-stroke" style="fill: none; stroke-opacity: 0; stroke: white; stroke-width: 15px;"/><rect x="784" y="82" width="244" height="12" class="djs-outline" style="fill: none;"/></g></g><g class="djs-group"><g class="djs-element djs-connection" data-element-id="connection_3046" style="display: block;"><g class="djs-visual"><polyline points="1103,88 1212,88 " style="stroke: black; fill: none; stroke-width: 1.5px; stroke-linejoin: round; marker-end: url('#activity-black-black-30di30v1e4j38kah60pkbf0xp');"/><text lineHeight="1.2" wordWrap="break-word" overflowWrap="break-word" hyphens="auto" class="djs-label" style="font-family: Arial, sans-serif; font-size: 11px; font-weight: normal; fill: black;"><tspan x="1128.55" y="103">füllt aus</tspan></text><text lineHeight="1.2" position="absolute" class="djs-labelNumber" style="font-family: Courier; font-size: 150px; font-weight: normal; fill: rgb(66, 174, 187);"><tspan x="1106.5" y="84">.</tspan></text><text lineHeight="1.2" backgroundColor="green" position="absolute" class="djs-labelNumber" style="font-family: Arial, sans-serif; font-size: 11px; font-weight: normal; fill: white;"><tspan x="1145.5" y="79">04</tspan></text></g><polyline points="1103,88 1212,88 " class="djs-hit djs-hit-stroke" style="fill: none; stroke-opacity: 0; stroke: white; stroke-width: 15px;"/><rect x="1097" y="82" width="121" height="12" class="djs-outline" style="fill: none;"/></g></g><g class="djs-group"><g class="djs-element djs-connection" data-element-id="connection_3362" style="display: block;"><g class="djs-visual"><polyline points="1250,153.75 1250,312 " style="stroke: black; fill: none; stroke-width: 1.5px; stroke-linejoin: round; marker-end: url('#activity-black-black-30di30v1e4j38kah60pkbf0xp');"/></g><polyline points="1250,153.75 1250,312 " class="djs-hit djs-hit-stroke" style="fill: none; stroke-opacity: 0; stroke: white; stroke-width: 15px;"/><rect x="1244" y="147.75" width="12" height="170.25" class="djs-outline" style="fill: none;"/></g></g><g class="djs-group"><g class="djs-element djs-connection" data-element-id="connection_4394" style="display: block;"><g class="djs-visual"><polyline points="1212,350 650,350 650,255 " style="stroke: black; fill: none; stroke-width: 1.5px; stroke-linejoin: round; marker-end: url('#activity-black-black-30di30v1e4j38kah60pkbf0xp');"/></g><polyline points="1212,350 650,350 650,255 " class="djs-hit djs-hit-stroke" style="fill: none; stroke-opacity: 0; stroke: white; stroke-width: 15px;"/><rect x="644" y="249" width="574" height="107" class="djs-outline" style="fill: none;"/></g></g><g class="djs-group"><g class="djs-element djs-connection" data-element-id="connection_2429" style="display: block;"><g class="djs-visual"><polyline points="630,265 630,350 380,350 " style="stroke: black; fill: none; stroke-width: 1.5px; stroke-linejoin: round; marker-end: url('#activity-black-black-30di30v1e4j38kah60pkbf0xp');"/><text lineHeight="1.2" position="absolute" class="djs-labelNumber" style="font-family: Courier; font-size: 150px; font-weight: normal; fill: rgb(66, 174, 187);"><tspan x="454" y="346">.</tspan></text><text lineHeight="1.2" backgroundColor="green" position="absolute" class="djs-labelNumber" style="font-family: Arial, sans-serif; font-size: 11px; font-weight: normal; fill: white;"><tspan x="493" y="341">05</tspan></text></g><polyline points="630,265 630,350 380,350 " class="djs-hit djs-hit-stroke" style="fill: none; stroke-opacity: 0; stroke: white; stroke-width: 15px;"/><rect x="374" y="259" width="262" height="97" class="djs-outline" style="fill: none;"/></g></g><g class="djs-group"><g class="djs-element djs-connection" data-element-id="connection_2906" style="display: block;"><g class="djs-visual"><polyline points="302,338 113,338 113,271 " style="stroke: black; fill: none; stroke-width: 1.5px; stroke-linejoin: round; marker-end: url('#activity-black-black-30di30v1e4j38kah60pkbf0xp');"/><text lineHeight="1.2" wordWrap="break-word" overflowWrap="break-word" hyphens="auto" class="djs-label" style="font-family: Arial, sans-serif; font-size: 11px; font-weight: normal; fill: black;"><tspan x="183.65" y="353">bekommt</tspan></text></g><polyline points="302,338 113,338 113,271 " class="djs-hit djs-hit-stroke" style="fill: none; stroke-opacity: 0; stroke: white; stroke-width: 15px;"/><rect x="107" y="265" width="201" height="79" class="djs-outline" style="fill: none;"/></g></g></svg>